<svg width="57" height="57" viewBox="0 0 57 57" fill="none" xmlns="http://www.w3.org/2000/svg">
<path d="M28.4832 54.3309C42.7589 54.3309 54.3316 42.7581 54.3316 28.4824C54.3316 14.2067 42.7589 2.634 28.4832 2.634C14.2075 2.634 2.63477 14.2067 2.63477 28.4824C2.63477 42.7581 14.2075 54.3309 28.4832 54.3309Z" fill="#F3F3F3" stroke="#DCDCDC" stroke-width="1.5" stroke-miterlimit="10"/>
<path d="M45.4457 48.026C45.4786 44.6341 44.4918 41.3106 42.6131 38.4864C40.7345 35.6621 38.0506 33.4674 34.9097 32.1868C36.3113 30.6764 37.1001 28.6982 37.1223 26.6378C37.154 25.267 36.8494 23.9093 36.2351 22.6834C35.6208 21.4575 34.7155 20.4007 33.5985 19.6056C32.4814 18.8104 31.1865 18.301 29.8271 18.1219C28.4676 17.9428 27.085 18.0995 25.8001 18.5783C24.5152 19.057 23.3672 19.8432 22.4564 20.8682C21.5456 21.8932 20.8997 23.1257 20.5753 24.4579C20.251 25.7902 20.2579 27.1817 20.5955 28.5107C20.9332 29.8396 21.5913 31.0656 22.5123 32.0814C19.3335 33.2956 16.5944 35.4395 14.6522 38.2337C12.7101 41.0278 11.6552 44.3424 11.625 47.7451" stroke="#DCDCDC" stroke-width="1.5" stroke-linecap="round" stroke-linejoin="round"/>
</svg>
