<svg width="23" height="24" viewBox="0 0 23 24" fill="none" xmlns="http://www.w3.org/2000/svg">
<path d="M19.1485 12.197C19.1471 11.5998 19.0799 11.0045 18.9483 10.4222L21.1082 9.16688C21.3207 9.04059 21.4747 8.83434 21.5364 8.59351C21.5981 8.35268 21.5624 8.09702 21.4372 7.88271L20.2643 5.81932C20.2035 5.712 20.1222 5.61788 20.0252 5.54234C19.9282 5.4668 19.8174 5.41138 19.6991 5.3792C19.5808 5.34701 19.4573 5.33874 19.3358 5.35484C19.2144 5.37095 19.0972 5.4111 18.9912 5.47303L16.9314 6.67067C15.9224 5.63038 14.6515 4.88708 13.2552 4.52071V1.93793C13.2515 1.69034 13.1523 1.45391 12.9787 1.27882C12.8052 1.10374 12.5708 1.00372 12.3254 1H9.95086C9.70427 1 9.46778 1.09884 9.29341 1.27473C9.11904 1.45062 9.02109 1.68918 9.02109 1.93793V4.59288C7.7406 4.9883 6.57956 5.70291 5.64528 6.67067L3.57115 5.47303C3.4662 5.41143 3.35014 5.37151 3.22975 5.35559C3.10935 5.33967 2.98702 5.34807 2.86987 5.3803C2.75272 5.41252 2.6431 5.46794 2.54739 5.54331C2.45168 5.61868 2.37179 5.7125 2.31237 5.81932L1.12512 7.86827C1.06372 7.97524 1.0239 8.09341 1.00793 8.21596C0.99196 8.33851 1.00017 8.46303 1.03207 8.58237C1.06397 8.70171 1.11894 8.81351 1.19383 8.91135C1.26871 9.00919 1.36203 9.09115 1.46842 9.15248L3.61406 10.4078C3.34688 11.5756 3.34688 12.7895 3.61406 13.9574L1.46842 15.2127C1.36203 15.274 1.26871 15.356 1.19383 15.4538C1.11894 15.5516 1.06397 15.6634 1.03207 15.7828C1.00017 15.9021 0.99196 16.0266 1.00793 16.1492C1.0239 16.2717 1.06372 16.3899 1.12512 16.4969L2.31237 18.5602C2.37179 18.6671 2.45168 18.7609 2.54739 18.8362C2.6431 18.9116 2.75272 18.967 2.86987 18.9993C2.98702 19.0315 3.10935 19.0399 3.22975 19.024C3.35014 19.008 3.4662 18.9681 3.57115 18.9065L5.63097 17.7089C6.56889 18.6792 7.73521 19.3941 9.02109 19.7867V21.5904C9.02106 21.8405 9.11856 22.0805 9.29253 22.2587C9.46649 22.4369 9.70296 22.5389 9.95086 22.5427H12.3683C12.6162 22.5389 12.8527 22.4369 13.0266 22.2587C13.2006 22.0805 13.2981 21.8405 13.2981 21.5904V19.8589C14.6966 19.498 15.9689 18.7539 16.9743 17.7089L19.0341 18.9065C19.1401 18.9685 19.2573 19.0087 19.3788 19.0248C19.5002 19.0409 19.6237 19.0326 19.742 19.0004C19.8603 18.9682 19.9712 18.9128 20.0681 18.8372C20.1651 18.7617 20.2464 18.6676 20.3072 18.5602L21.4801 16.4969C21.5421 16.3908 21.5828 16.2734 21.5998 16.1514C21.6168 16.0294 21.6098 15.9053 21.5793 15.786C21.5487 15.6668 21.4952 15.5548 21.4217 15.4564C21.3483 15.358 21.2563 15.2752 21.1511 15.2127L18.9912 13.9574C19.1074 13.3782 19.1602 12.7878 19.1485 12.197V12.197Z" stroke="#231815" stroke-width="1.4" stroke-linecap="round" stroke-linejoin="round"/>
<path d="M11.2812 15.6167C13.3589 15.6167 15.0432 13.9177 15.0432 11.8218C15.0432 9.72599 13.3589 8.02698 11.2812 8.02698C9.20348 8.02698 7.51917 9.72599 7.51917 11.8218C7.51917 13.9177 9.20348 15.6167 11.2812 15.6167Z" stroke="#231815" stroke-width="1.4" stroke-linecap="round" stroke-linejoin="round"/>
</svg>
