<svg width="16" height="14" viewBox="0 0 16 14" fill="none" xmlns="http://www.w3.org/2000/svg">
<path d="M14.2177 0.0726077L0.75403 4.3461C0.624911 4.38562 0.512142 4.47242 0.433617 4.59276C0.355093 4.7131 0.315311 4.86008 0.320585 5.01035C0.325859 5.16062 0.375884 5.30557 0.462727 5.42224C0.549569 5.5389 0.66825 5.62058 0.79994 5.6543L6.76501 6.63703L6.63707 12.6707C6.63864 12.8184 6.68359 12.9624 6.76501 13.0806C6.84643 13.1988 7.08777 13.3248 7.21572 13.3651C7.34366 13.4053 7.47908 13.3977 7.60118 13.3435C7.72328 13.2894 7.82531 13.1916 7.89158 13.0652L14.9149 1.13089C14.9891 1.01439 15.028 0.873973 15.0261 0.729671C15.0243 0.585369 14.9816 0.44454 14.9044 0.327249C14.8271 0.209957 14.7191 0.122211 14.5958 0.0764865C14.4725 0.0307619 14.3402 0.0293961 14.2177 0.0726077Z" fill="#FF7E36"/>
</svg>
