<svg width="22" height="21" viewBox="0 0 22 21" fill="none" xmlns="http://www.w3.org/2000/svg">
<path d="M21.2794 20.3998H0.701767C0.609615 20.3998 0.518364 20.3812 0.433227 20.3449C0.34809 20.3087 0.270739 20.2556 0.205578 20.1886C0.140416 20.1216 0.0887242 20.0421 0.0534592 19.9546C0.0181943 19.8671 5.21456e-05 19.7733 5.21456e-05 19.6786C-0.00627131 17.5711 0.562636 15.5039 1.64216 13.7121C2.72168 11.9203 4.26852 10.4756 6.10694 9.54213C5.54404 8.64096 5.22757 7.60065 5.19074 6.53041C5.15391 5.46017 5.39808 4.39947 5.89763 3.45968C6.39718 2.51988 7.13368 1.7357 8.02981 1.18936C8.92593 0.643012 9.94865 0.354675 10.9906 0.354675C12.0325 0.354675 13.0552 0.643012 13.9513 1.18936C14.8474 1.7357 15.5839 2.51988 16.0835 3.45968C16.583 4.39947 16.8272 5.46017 16.7904 6.53041C16.7535 7.60065 16.4371 8.64096 15.8742 9.54213C17.7126 10.4756 19.2594 11.9203 20.339 13.7121C21.4185 15.5039 21.9874 17.5711 21.9811 19.6786C21.9763 19.8683 21.9008 20.0489 21.7702 20.1831C21.6397 20.3173 21.4639 20.3949 21.2794 20.3998ZM1.44142 18.9379H20.5397C20.415 17.0881 19.7796 15.3133 18.708 13.8217C17.6364 12.3301 16.173 11.1836 14.4897 10.5168C14.3831 10.474 14.2879 10.4057 14.212 10.3176C14.1362 10.2294 14.0818 10.124 14.0535 10.01C14.0336 9.89342 14.0386 9.77374 14.0681 9.65932C14.0976 9.5449 14.1508 9.43841 14.2242 9.34719C14.9526 8.53401 15.3585 7.47007 15.3621 6.36473C15.4015 5.74979 15.3177 5.13308 15.1159 4.55278C14.914 3.97247 14.5985 3.44096 14.1887 2.99108C13.7789 2.54121 13.2836 2.1826 12.7335 1.93743C12.1834 1.69225 11.5902 1.56574 10.9906 1.56574C10.391 1.56574 9.79776 1.69225 9.24765 1.93743C8.69755 2.1826 8.20226 2.54121 7.79246 2.99108C7.38267 3.44096 7.06707 3.97247 6.86523 4.55278C6.66338 5.13308 6.57958 5.74979 6.61901 6.36473C6.62259 7.47007 7.02852 8.53401 7.75694 9.34719C7.83062 9.43794 7.88269 9.54511 7.90903 9.66016C7.93537 9.77521 7.93525 9.89502 7.90867 10.01C7.88523 10.1233 7.83485 10.2289 7.76205 10.3173C7.68925 10.4058 7.59627 10.4743 7.49143 10.5168C5.81913 11.1779 4.36329 12.3125 3.29255 13.7891C2.22181 15.2656 1.57999 17.0238 1.44142 18.8599V18.9379Z" fill="#231815"/>
</svg>
